<?xml version="1.0" encoding="UTF-8"?>
<!DOCTYPE svg PUBLIC "-//W3C//DTD SVG 1.1//EN" "http://www.w3.org/Graphics/SVG/1.1/DTD/svg11.dtd">
<!-- Creator: CorelDRAW X7 -->
<svg xmlns="http://www.w3.org/2000/svg" xml:space="preserve" width="300px" height="105px" version="1.1" style="shape-rendering:geometricPrecision; text-rendering:geometricPrecision; image-rendering:optimizeQuality; fill-rule:evenodd; clip-rule:evenodd"
viewBox="0 0 300 105"
 xmlns:xlink="http://www.w3.org/1999/xlink">
 <defs>
  <style type="text/css">
   <![CDATA[
    .fil2 {fill:none}
    .fil3 {fill:#FEFEFE}
    .fil0 {fill:#14244A}
    .fil1 {fill:white}
    .fil4 {fill:#FEFEFE;fill-rule:nonzero}
    .fil5 {fill:#14244A;fill-rule:nonzero}
   ]]>
  </style>
 </defs>
 <g id="Layer_x0020_1">
  <metadata id="CorelCorpID_0Corel-Layer"/>
  <g id="_2369005886096">
   <g>
    <path class="fil0" d="M54 1c30,0 54,23 54,51 0,28 -24,51 -54,51 -30,0 -54,-23 -54,-51 0,-28 24,-51 54,-51z"/>
    <path class="fil1" d="M54 3c28,0 51,22 51,49 0,27 -23,49 -51,49 -28,0 -51,-22 -51,-49 0,-27 23,-49 51,-49z"/>
    <path class="fil0" d="M54 5c27,0 50,21 50,47 0,26 -23,47 -50,47 -28,0 -50,-21 -50,-47 0,-26 22,-47 50,-47z"/>
    <path class="fil1" d="M54 16c21,0 38,16 38,36 0,20 -17,36 -38,36 -21,0 -38,-16 -38,-36 0,-20 17,-36 38,-36z"/>
    <path class="fil0" d="M54 17c20,0 36,16 36,35 0,19 -16,34 -36,34 -20,0 -36,-15 -36,-34 0,-19 16,-35 36,-35z"/>
    <path class="fil1" d="M53 34l0 0 5 11 5 0 -5 -11 -5 0zm8 17l7 14 4 -2 -6 -12 -5 0z"/>
    <path class="fil1" d="M56 34l0 0 -5 11 -5 0 6 -11 4 0zm-8 17l-7 14 -4 -2 6 -12 5 0z"/>
    <path class="fil1" d="M49 23c-6,4 -15,24 -19,32 -3,7 -1,14 5,17 4,2 19,1 25,1 22,0 23,-8 14,-25 -6,-13 -12,-31 -25,-25zm3 6c-5,2 -12,19 -15,24 -9,18 6,14 20,14 24,0 19,-3 5,-30 -2,-5 -4,-11 -10,-8z"/>
    <path class="fil1" d="M49 23c-6,4 -15,24 -19,32 -3,7 -1,14 5,17 3,1 11,1 17,1l5 -6c-14,0 -29,4 -20,-14 3,-5 10,-22 15,-24 6,-3 8,3 10,8 3,6 6,11 8,15l4 -4 0 0c-6,-13 -12,-31 -25,-25z"/>
    <polygon class="fil1" points="68,65 54,58 54,53 68,60 "/>
    <polygon class="fil1" points="68,65 62,62 65,59 68,60 "/>
    <polygon class="fil1" points="39,61 54,53 54,58 41,65 "/>
    <polygon class="fil1" points="60,49 68,65 72,63 65,49 "/>
    <polygon class="fil1" points="65,58 68,65 72,63 68,55 "/>
    <polygon class="fil1" points="49,49 41,65 37,63 44,49 "/>
    <path class="fil1" d="M73 68l0 1 0 0 0 -1zm1 3c0,4 -1,7 -4,8 -6,3 -18,-5 -27,-18 -9,-14 -12,-27 -5,-30 1,-1 3,-1 5,-1 -1,0 -2,1 -2,1 -6,3 -4,15 4,27 8,12 20,20 25,17 2,-1 3,-2 3,-4l1 0z"/>
    <path class="fil1" d="M73 68l0 1 0 0 0 -1zm-20 5l2 -3c6,4 12,7 15,5 2,-1 3,-2 3,-4l1 0c0,4 -1,7 -4,8 -4,2 -11,0 -17,-6z"/>
    <path class="fil2" d="M17 58c-3,-10 -1,-19 2,-25 16,-28 59,-17 67,-4 3,6 11,19 6,22"/>
    <path class="fil2" d="M11 58c3,19 17,27 20,29 2,2 24,7 30,5 7,-2 22,-9 24,-14 2,-4 10,-16 10,-20 0,-5 0,-5 0,-5"/>
    <path class="fil2" d="M54 15c21,0 38,17 38,37 0,20 -17,36 -38,36 -21,0 -38,-16 -38,-36 0,-20 17,-37 38,-37z"/>
    <path class="fil3" d="M12 37l-1 1 4 2 1 -1 -1 0 0 -1c0,-1 0,-2 -1,-2 -1,-1 -1,0 -2,1zm2 1l0 0 -1 0 0 -1c0,0 1,0 1,0 0,0 0,0 0,1zm3 -3l1 -1 -3 -1 1 -1 -1 -1 -2 3 1 1 0 -1 3 1zm2 -2c0,-1 0,-1 0,-1 -1,0 -1,0 -1,0 0,0 0,1 0,1 0,0 1,0 1,0zm3 -5l1 -1 -4 -1 -1 0 2 4 1 0 -1 -1 2 -2 0 1zm-2 0l-1 -1 2 0 -1 1zm5 -3c0,0 0,-1 0,-2 -1,-1 -3,1 -3,1 0,0 0,-1 0,-1 0,0 1,0 1,-1l0 0c-1,0 -1,0 -1,0 -1,1 -1,2 -1,3 1,1 3,-1 3,-1 0,0 0,0 0,1 0,0 -1,0 -1,1l0 0c0,0 1,0 2,-1zm3 -8l1 3 -2 -2 -1 1 1 2 -3 -1 -1 1 4 2 1 -1 -1 -2 2 1 1 0 -1 -5 -1 1zm6 1l1 0 -3 -3 -1 0 0 5 1 -1 0 -1 2 0 0 0zm-2 -1l0 -1 1 1 -1 0zm5 0c1,0 1,-1 0,-2l-1 -2 -2 1 0 0 2 0 0 1c1,1 0,1 0,1 0,0 0,0 -1,0l0 1c0,0 1,0 2,0zm5 -2l1 0 -3 -4 -1 1 -1 4 1 0 0 -1 2 -1 1 1zm-3 -1l1 -1 0 1 -1 0zm7 0c1,0 2,-1 2,-2 0,-1 -3,0 -3,-1 0,0 0,0 1,0 0,0 1,0 1,0l0 -1c0,0 -1,0 -1,0 -2,0 -2,1 -2,1 0,2 3,1 3,2 0,0 0,0 -1,0 0,0 -1,0 -1,0l-1 1c1,0 2,0 2,0zm6 -1l1 0 -2 -4 -1 0 -2 5 1 0 1 -1 1 0 1 0zm-2 -1l0 -2 1 2 -1 0zm6 1l1 0 -1 -1c1,0 1,-1 1,-1 0,-1 -1,-2 -2,-2l-2 0 0 4 1 0 0 -1 1 0 1 1zm0 -2c0,0 0,0 -1,0l0 0 0 -1 0 0c1,0 1,0 1,1zm2 2l1 1 0 -5 -1 0 0 4zm4 1c1,0 2,0 2,-1l1 -3 -3 0 0 1 1 0 0 2c0,0 0,0 -1,0 0,0 0,0 0,0l-1 0c0,1 1,1 1,1zm5 1l2 1 -1 -5 -1 0 -3 3 1 1 1 -1 1 1 0 0zm-1 -2l1 -1 0 2 -1 -1zm9 1l-1 2 0 -2 -1 -1 -2 2 0 -3 -1 0 0 4 1 1 2 -2 -1 2 1 1 3 -3 -1 -1zm3 7l1 0 0 -4 -1 -1 -3 3 1 0 0 0 2 1 0 1zm-1 -3l1 -1 0 2 -1 -1zm2 3l1 2c1,0 3,0 3,-1 1,-1 1,-2 0,-3l-2 -1 -2 3zm1 0l2 -1 0 0c1,1 1,1 1,2 -1,0 -2,0 -2,0l-1 -1zm9 5l-2 1 1 -3 -1 0 -2 1 1 -3 -1 -1 -2 4 1 1 2 -1 -1 2 1 1 4 -2 -1 0zm-2 4l1 1 3 -3 -1 -1 -3 3zm6 1l-1 -2 -4 2 1 1 1 0 0 0c1,1 2,2 2,1 1,0 1,-1 1,-2zm-2 1l0 -1 1 0 0 0c0,1 0,1 0,1 -1,0 -1,0 -1,0zm1 6l0 1 3 -4 0 -1 -5 0 1 1 0 0 1 2 0 1zm0 -3l2 0 -1 1 -1 -1z"/>
    <path class="fil4" d="M41 94l1 -4 1 0c1,0 1,1 1,1 0,0 0,0 1,0 0,0 0,1 0,1 -1,0 -1,0 -1,1 0,0 0,0 0,0 0,0 -1,0 -1,0 0,0 0,0 -1,0l0 0 -1 1 0 0zm1 -3l0 1 1 0c0,0 0,0 0,0 0,0 0,0 1,0 0,0 0,0 0,0 0,0 0,0 0,-1 0,0 0,0 -1,0 0,0 0,0 0,0l-1 0zm3 4l1 -3 -1 -1 0 0 3 0 0 1 -1 0 -1 3 -1 0zm2 0l1 0 0 0 0 1 -1 -1zm7 1l-1 0 0 -1 -2 0 0 1 -1 0 2 -4 1 0 1 4zm-1 -2l-1 -1 0 1 1 0zm2 0l0 0c0,1 1,1 1,1 0,0 0,0 0,0 1,0 1,0 1,0 0,0 0,0 0,0 0,-1 0,-1 0,-1 0,0 0,0 0,0 0,0 -1,0 -1,0 0,0 -1,0 -1,0 0,-1 0,-1 0,-1 0,-1 0,-1 0,-1 0,0 0,0 0,0 1,0 1,-1 1,-1 1,0 1,1 1,1 1,0 1,0 1,1l-1 0c0,0 0,-1 0,-1 0,0 -1,0 -1,0 0,0 0,0 0,0 0,0 -1,0 -1,1 0,0 1,0 1,0 0,0 0,0 0,0 1,0 1,0 1,0 1,1 1,1 1,1 0,0 0,0 0,1 0,0 0,0 0,0 0,0 -1,1 -1,1 0,0 0,0 -1,0 0,0 -1,0 -1,0 0,-1 0,-1 0,-2zm4 2l-1 -5 1 0 1 3 0 -3 1 0 1 3 0 -3 1 0 0 4 -1 0 -1 -3 -1 3 -1 1zm9 -2l-1 0 -1 -1 -1 1 -1 1 0 0 0 -5 1 0 3 4zm-2 -1l-1 -2 0 2 1 0z"/>
   </g>
   <path class="fil5" d="M128 35l-11 0 0 25 7 0 0 -7 4 0c7,0 11,-3 11,-9 0,-5 -4,-9 -11,-9zm0 13l-4 0 0 -7 4 0c3,0 4,1 4,3 0,2 -1,4 -4,4z"/>
   <polygon id="1" class="fil5" points="147,60 154,60 154,41 161,41 161,35 140,35 140,41 147,41 "/>
   <path id="2" class="fil5" d="M165 60c3,0 4,-2 4,-4 0,-2 -1,-4 -4,-4 -2,0 -4,2 -4,4 0,2 2,4 4,4z"/>
   <path id="3" class="fil5" d="M201 60l7 0 -10 -25 -7 0 -11 25 7 0 2 -5 10 0 2 5zm-10 -10l3 -8 3 8 -6 0z"/>
   <path id="4" class="fil5" d="M219 60c7,0 11,-4 11,-8 0,-9 -14,-6 -14,-10 0,-1 1,-2 4,-2 2,0 4,1 7,2l2 -5c-3,-2 -6,-2 -9,-2 -7,0 -11,3 -11,8 0,9 14,6 14,10 0,1 -1,2 -4,2 -3,0 -6,-1 -8,-3l-2 5c2,2 6,3 10,3z"/>
   <polygon id="5" class="fil5" points="265,35 260,51 255,35 248,35 243,51 238,35 231,35 239,60 247,60 251,45 256,60 264,60 271,35 "/>
   <path id="6" class="fil5" d="M291 60l8 0 -11 -25 -7 0 -11 25 7 0 2 -5 11 0 1 5zm-10 -10l3 -8 4 8 -7 0z"/>
   <path class="fil5" d="M125 74l1 0 -4 -9 -1 0 -4 9 1 0 1 -2 5 0 1 2zm-5 -3l2 -5 2 5 -4 0z"/>
   <path id="1" class="fil5" d="M130 74c3,0 4,-1 4,-3 0,-3 -6,-2 -6,-4 0,-1 1,-1 3,-1 0,0 1,0 2,0l1 -1c-1,0 -2,0 -3,0 -3,0 -4,1 -4,2 0,4 6,2 6,4 0,1 -1,2 -3,2 -1,0 -2,-1 -3,-1l0 1c1,1 2,1 3,1z"/>
   <polygon id="2" class="fil5" points="148,65 145,72 143,65 141,65 139,72 136,65 135,65 138,74 139,74 142,67 144,74 146,74 149,65 "/>
   <path id="3" class="fil5" d="M157 74l1 0 -4 -9 -1 0 -4 9 1 0 1 -2 5 0 1 2zm-5 -3l2 -5 2 5 -4 0z"/>
   <path id="4" class="fil5" d="M161 74c2,0 3,-1 3,-3l0 -6 -5 0 0 1 4 0 0 5c0,1 -1,2 -2,2 -1,0 -1,-1 -2,-1l-1 1c1,1 2,1 3,1z"/>
   <path id="5" class="fil5" d="M173 74l2 0 -4 -9 -2 0 -4 9 1 0 1 -2 5 0 1 2zm-5 -3l2 -5 2 5 -4 0z"/>
   <path id="6" class="fil5" d="M182 74c3,0 4,-1 4,-3 0,-3 -6,-2 -6,-4 0,-1 1,-1 2,-1 1,0 2,0 3,0l0 -1c0,0 -1,0 -3,0 -2,0 -3,1 -3,2 0,4 6,2 6,4 0,1 -1,2 -3,2 -1,0 -2,-1 -3,-1l0 1c0,1 2,1 3,1z"/>
   <path id="7" class="fil5" d="M195 74l1 0 -4 -9 -2 0 -4 9 2 0 1 -2 5 0 1 2zm-6 -3l2 -5 2 5 -4 0z"/>
   <path id="8" class="fil5" d="M205 74l-2 -3c1,-1 2,-2 2,-3 0,-2 -2,-3 -4,-3l-4 0 0 9 2 0 0 -3 2 0c0,0 0,0 0,0l2 3 2 0zm-4 -4l-2 0 0 -4 2 0c2,0 2,1 2,2 0,1 0,2 -2,2z"/>
   <polygon id="9" class="fil5" points="207,74 208,74 208,65 207,65 "/>
   <path id="10" class="fil5" d="M216 74c1,0 2,-1 2,-3l0 -6 -4 0 0 1 3 0 0 5c0,1 0,2 -1,2 -1,0 -2,-1 -2,-1l-1 1c1,1 1,1 3,1z"/>
   <path id="11" class="fil5" d="M228 74l1 0 -4 -9 -1 0 -4 9 1 0 1 -2 5 0 1 2zm-6 -3l2 -5 2 5 -4 0z"/>
   <polygon id="12" class="fil5" points="242,65 239,72 237,65 235,65 233,72 230,65 229,65 232,74 234,74 236,67 239,74 240,74 243,65 "/>
   <path id="13" class="fil5" d="M251 74l2 0 -5 -9 -1 0 -4 9 1 0 1 -2 5 0 1 2zm-5 -3l2 -5 2 5 -4 0z"/>
   <path id="14" class="fil5" d="M254 74l4 0c3,0 5,-2 5,-5 0,-2 -2,-4 -5,-4l-4 0 0 9zm1 -1l0 -7 3 0c2,0 3,1 3,3 0,2 -1,4 -3,4l-3 0z"/>
   <polygon id="15" class="fil5" points="276,65 274,72 271,65 270,65 267,72 265,65 263,65 267,74 268,74 270,67 273,74 274,74 277,65 "/>
   <polygon id="16" class="fil5" points="279,74 280,74 280,65 279,65 "/>
   <path id="17" class="fil5" d="M287 65l-4 0 0 9 1 0 0 -3 3 0c2,0 3,-1 3,-3 0,-2 -1,-3 -3,-3zm0 5l-3 0 0 -4 3 0c1,0 2,1 2,2 0,1 -1,2 -2,2z"/>
   <path id="18" class="fil5" d="M299 74l1 0 -4 -9 -1 0 -4 9 1 0 1 -2 5 0 1 2zm-6 -3l2 -5 2 5 -4 0z"/>
  </g>
 </g>
</svg>
