<?xml version="1.0" encoding="UTF-8"?>
<!DOCTYPE svg PUBLIC "-//W3C//DTD SVG 1.1//EN" "http://www.w3.org/Graphics/SVG/1.1/DTD/svg11.dtd">
<!-- Creator: CorelDRAW X7 -->
<svg xmlns="http://www.w3.org/2000/svg" xml:space="preserve" width="300px" height="70px" version="1.1" style="shape-rendering:geometricPrecision; text-rendering:geometricPrecision; image-rendering:optimizeQuality; fill-rule:evenodd; clip-rule:evenodd"
viewBox="0 0 300 70"
 xmlns:xlink="http://www.w3.org/1999/xlink">
 <defs>
  <style type="text/css">
   <![CDATA[
    .fil1 {fill:#01697C}
    .fil0 {fill:#AB6148}
    .fil2 {fill:#B6B6B6}
    .fil3 {fill:#01697C;fill-rule:nonzero}
   ]]>
  </style>
 </defs>
 <g id="Layer_x0020_1">
  <metadata id="CorelCorpID_0Corel-Layer"/>
  <g id="_2368998766288">
   <path class="fil0" d="M33 69c7,0 13,0 19,-3 1,-1 4,-2 5,-3 -5,1 -6,4 -20,4 -8,0 -17,-4 -23,-9 -5,-4 -8,-11 -10,-17 -2,-14 6,-29 16,-35 4,-2 5,-2 8,-3l2 -1c1,-1 1,0 1,-1 -2,1 -4,0 -12,5 -7,4 -13,9 -16,17 -2,4 -3,8 -4,13 0,4 2,11 3,14 2,4 4,7 7,10l2 2c1,0 2,1 3,1 2,2 3,2 5,3 4,2 9,3 14,3z"/>
   <path class="fil1" d="M21 25l0 1c0,4 9,5 9,0 0,-3 -4,-6 3,-9 5,-2 15,-3 15,4 0,4 -2,6 -5,7 0,4 2,3 1,8 0,2 -1,4 -2,5 -3,3 -3,-1 -5,-1 -2,0 -4,3 -1,5 5,4 16,-2 16,-10 0,-2 -2,-5 -2,-6 0,-1 2,-1 4,-3 1,-1 3,-3 3,-5 0,-5 -8,-8 -13,-8 -7,0 -15,2 -20,7 -1,1 -3,3 -3,5z"/>
   <path class="fil1" d="M22 48c-6,0 -4,-2 -7,-3 -1,1 -1,3 -1,4 -1,1 -1,2 -2,3 6,0 11,0 16,0 3,0 5,0 8,0l17 0 0 -8c-10,0 -7,3 -13,3 -5,0 -5,-3 -8,-3 -4,0 -6,4 -10,4z"/>
   <path class="fil1" d="M23 44c-2,0 -2,-6 -2,-7 -1,1 -4,1 -6,2 -2,7 8,13 18,1 1,-2 2,-3 3,-4 1,-1 1,-3 2,-4 1,-2 6,-11 6,-12l0 -1c-1,0 -2,-1 -4,0 -2,1 -3,2 -4,3 -2,2 -4,8 -6,11 0,1 0,2 -1,2 0,1 0,2 -1,3 0,1 -3,6 -5,6z"/>
   <path class="fil2" d="M37 10c5,0 10,-4 19,0 1,1 2,1 3,2 1,1 2,2 3,2 7,8 7,21 1,30 -4,7 -8,8 -9,9 5,0 13,-9 15,-15 3,-10 1,-21 -7,-27 -1,-1 -2,-2 -3,-2 -5,-3 -7,-3 -12,-3 -3,0 -9,2 -10,4z"/>
   <path class="fil3" d="M89 46l0 -41 15 0c2,0 5,1 7,1 2,1 3,1 5,2 1,1 2,2 2,4 1,1 1,3 1,4 0,1 0,2 0,3 -1,1 -1,1 -2,2 0,1 -1,2 -2,2 -1,1 -2,1 -3,2 3,0 5,2 6,3 1,1 2,3 2,6 0,1 0,3 -1,4 -1,2 -2,3 -3,4 -1,1 -3,2 -5,3 -2,0 -4,1 -6,1l-16 0zm9 -17l0 10 7 0c1,0 2,-1 3,-1 1,0 1,-1 2,-1 0,-1 0,-1 1,-2 0,0 0,-1 0,-2 0,0 0,-1 0,-2 -1,0 -1,-1 -1,-1 -1,-1 -2,-1 -2,-1 -1,0 -2,0 -3,0l-7 0zm0 -7l5 0c1,0 2,0 3,0 1,0 1,0 2,-1 1,0 1,-1 1,-1 1,-1 1,-2 1,-3 0,-1 0,-1 -1,-2 0,-1 0,-1 -1,-2 0,0 -1,0 -2,0 0,-1 -1,-1 -2,-1l-6 0 0 10z"/>
   <polygon id="1" class="fil3" points="151,5 151,12 135,12 135,22 147,22 147,29 135,29 135,38 151,38 151,46 125,46 125,5 "/>
   <path id="2" class="fil3" d="M166 22l1 0c2,0 3,-1 3,-2l9 -13c1,-1 1,-1 2,-1 1,-1 2,-1 2,-1l9 0 -12 17c-1,0 -1,1 -2,1 0,0 -1,1 -1,1 1,0 1,1 2,1 0,1 1,1 1,2l13 19 -9 0c0,0 -1,0 -1,0 -1,-1 -1,-1 -1,-1 0,0 -1,0 -1,0 0,-1 0,-1 0,-1l-10 -14c0,-1 0,-1 -1,-1 0,0 -1,-1 -2,-1l-2 0 0 18 -10 0 0 -41 10 0 0 17z"/>
   <path id="3" class="fil3" d="M234 46l-8 0c0,0 -1,-1 -2,-1 0,0 -1,-1 -1,-1l-2 -7 -15 0 -3 7c0,0 0,1 -1,1 0,0 -1,1 -2,1l-7 0 15 -41 10 0 16 41zm-26 -16l11 0 -4 -11c0,0 -1,-1 -1,-2 0,-1 0,-2 -1,-3 0,1 0,2 -1,3 0,1 0,2 -1,2l-3 11z"/>
   <path id="4" class="fil3" d="M258 27c0,1 0,2 1,2 0,1 0,2 1,3 0,-1 0,-2 1,-3 0,0 0,-1 1,-2l10 -20c0,-1 0,-1 1,-1 0,0 0,-1 0,-1 1,0 1,0 1,0 0,0 1,0 1,0l7 0 0 41 -8 0 0 -24c0,-1 0,-2 0,-3l-10 21c-1,0 -1,1 -2,1 0,0 -1,1 -2,1l-1 0c-1,0 -1,-1 -2,-1 -1,0 -1,-1 -1,-1l-11 -21c0,0 0,1 0,2 0,0 0,1 0,1l0 24 -8 0 0 -41 7 0c0,0 1,0 1,0 0,0 1,0 1,0 0,0 0,1 1,1 0,0 0,0 0,1l11 20z"/>
   <polygon id="5" class="fil3" points="299,46 290,46 290,5 299,5 "/>
   <path class="fil3" d="M91 60l0 3 -2 0 0 -10 3 0c1,0 2,0 2,0 1,0 1,1 2,1 0,0 0,1 0,1 1,0 1,1 1,1 0,1 0,1 -1,2 0,0 0,1 0,1 -1,0 -1,0 -2,1 0,0 -1,0 -2,0l-1 0zm0 -2l1 0c1,0 2,0 2,0 0,-1 0,-1 0,-2 0,0 0,0 0,0 0,-1 0,-1 0,-1 0,0 -1,0 -1,0 0,0 0,0 -1,0l-1 0 0 3z"/>
   <polygon id="1" class="fil3" points="105,53 105,55 102,55 102,63 100,63 100,55 97,55 97,53 "/>
   <path id="2" class="fil3" d="M105 62c0,0 0,0 0,0 0,0 0,-1 0,-1 0,0 0,0 0,0 1,0 1,0 1,0 0,0 0,0 0,0 1,0 1,0 1,0 0,0 0,1 0,1 0,0 0,0 0,0 0,0 0,1 0,1 0,0 0,0 0,0 0,0 0,0 -1,0 0,0 0,0 0,0 0,0 0,0 -1,0 0,0 0,0 0,0 0,0 0,0 0,0 0,0 0,-1 0,-1z"/>
   <path id="3" class="fil3" d="M111 63l0 -10 4 0c1,0 1,0 2,0 0,0 1,0 1,1 0,0 1,0 1,1 0,0 0,0 0,1 0,0 0,0 0,0 0,1 0,1 0,1 -1,0 -1,0 -1,1 0,0 0,0 -1,0 1,0 1,0 2,1 0,0 0,1 0,1 0,1 0,1 0,1 0,1 0,1 -1,1 0,1 0,1 -1,1 0,0 -1,0 -2,0l-4 0zm3 -4l0 3 1 0c1,0 1,-1 1,-1 0,0 1,0 1,0 0,0 0,0 0,0 0,-1 0,-1 0,-1 0,0 0,0 0,0 0,0 0,-1 0,-1 -1,0 -1,0 -1,0 0,0 0,0 -1,0l-1 0zm0 -2l1 0c0,0 0,0 1,0 0,0 0,0 0,0 0,0 0,0 1,0 0,0 0,-1 0,-1 0,0 0,0 0,-1 -1,0 -1,0 -1,0 0,0 0,0 0,0 0,0 -1,0 -1,0l-1 0 0 2z"/>
   <path id="4" class="fil3" d="M124 56c0,0 1,0 1,0 1,0 1,0 1,1 0,0 1,0 1,1 0,0 0,1 0,1 0,0 0,1 0,1 0,0 0,0 0,0 0,0 0,0 0,0 0,0 0,0 0,0l-5 0c0,1 1,1 1,1 0,1 1,1 1,1 0,0 1,0 1,0 0,0 0,0 0,0 0,-1 1,-1 1,-1 0,0 0,0 0,0 0,0 0,0 0,0l1 1c0,0 0,1 -1,1 0,0 0,0 0,0 -1,0 -1,0 -1,0 -1,0 -1,0 -1,0 -1,0 -1,0 -2,0 0,0 0,0 -1,-1 0,0 0,0 -1,-1 0,0 0,-1 0,-2 0,0 0,0 0,-1 1,0 1,-1 1,-1 0,0 1,-1 1,-1 1,0 1,0 2,0zm0 1c-1,0 -1,0 -1,1 0,0 -1,0 -1,1l3 0c0,0 0,-1 0,-1 0,0 0,0 0,0 0,0 0,0 -1,-1 0,0 0,0 0,0z"/>
   <path id="5" class="fil3" d="M128 63l0 -7 2 0c0,0 0,0 0,0 0,0 0,0 0,0 0,0 0,0 0,0 0,0 0,0 0,0l0 1c1,0 1,-1 1,-1 1,0 1,0 1,0 1,0 1,0 1,0l0 2c0,0 0,0 0,0 0,0 0,0 0,0 0,0 -1,0 -1,0 0,0 0,0 0,0 -1,0 -1,0 -1,1l0 4 -3 0z"/>
   <path id="6" class="fil3" d="M136 53l0 6 1 0c0,0 0,0 0,0 0,0 0,-1 0,-1l2 -2c0,0 0,0 0,0 0,0 0,0 0,0l2 0 -1 3c-1,0 -1,0 -1,0 0,0 0,0 0,0 0,0 0,1 0,1l3 3 -2 0c-1,0 -1,0 -1,0 0,0 0,0 0,0l-2 -3c0,0 0,0 0,0 0,0 0,0 0,0l-1 0 0 3 -2 0 0 -10 2 0z"/>
   <path id="7" class="fil3" d="M148 63c-1,0 -1,0 -1,0 0,0 0,0 0,0l0 0c-1,0 -1,0 -1,0 0,0 0,0 0,0 -1,0 -1,0 -1,0 0,0 0,0 -1,0 0,0 0,0 -1,0 0,0 0,0 0,0 0,0 -1,0 -1,-1 0,0 0,0 0,-1 0,0 0,0 0,0 0,-1 1,-1 1,-1 0,0 1,-1 1,-1 1,0 2,0 2,0l0 0c0,-1 0,-1 0,-1 0,0 0,0 -1,0 0,0 0,0 0,0 0,0 -1,0 -1,0 0,0 0,0 0,0 0,0 0,0 -1,0 0,0 0,0 0,0 0,0 0,0 0,0l-1 -1c1,0 1,-1 2,-1 0,0 1,0 2,0 0,0 1,0 1,0 0,0 1,0 1,1 0,0 0,0 0,1 1,0 1,0 1,1l0 4 -1 0zm-3 -1c0,0 1,0 1,0 0,0 0,0 0,-1l0 -1c0,0 0,0 -1,0 0,0 0,1 0,1 -1,0 -1,0 -1,0 0,0 0,0 0,0 0,1 0,1 0,1 1,0 1,0 1,0z"/>
   <path id="8" class="fil3" d="M150 63l0 -10 2 0 0 4c1,-1 1,-1 1,-1 1,0 1,0 1,0 1,0 1,0 1,0 1,0 1,0 1,1 0,0 1,0 1,1 0,0 0,0 0,1l0 4 -2 0 0 -4c0,-1 0,-1 -1,-1 0,0 0,0 0,0 -1,0 -1,0 -1,0 0,0 0,0 -1,0l0 5 -2 0z"/>
   <path id="9" class="fil3" d="M161 63l0 -10 4 0c1,0 1,0 2,0 0,0 1,0 1,1 0,0 1,0 1,1 0,0 0,0 0,1 0,0 0,0 0,0 0,1 0,1 0,1 -1,0 -1,0 -1,1 0,0 0,0 -1,0 1,0 1,0 2,1 0,0 0,1 0,1 0,1 0,1 0,1 0,1 0,1 -1,1 0,1 -1,1 -1,1 -1,0 -1,0 -2,0l-4 0zm3 -4l0 3 1 0c1,0 1,-1 1,-1 0,0 0,0 1,0 0,0 0,0 0,0 0,-1 0,-1 0,-1 0,0 0,0 0,0 0,0 0,-1 0,-1 -1,0 -1,0 -1,0 0,0 0,0 -1,0l-1 0zm0 -2l1 0c0,0 0,0 1,0 0,0 0,0 0,0 0,0 0,0 0,0 1,0 1,-1 1,-1 0,0 0,0 -1,-1 0,0 0,0 0,0 0,0 0,0 0,0 -1,0 -1,0 -1,0l-1 0 0 2z"/>
   <path id="10" class="fil3" d="M176 63c-1,0 -1,0 -1,0 0,0 0,0 0,0l0 0c0,0 -1,0 -1,0 0,0 0,0 0,0 -1,0 -1,0 -1,0 0,0 0,0 -1,0 0,0 0,0 -1,0 0,0 0,0 0,0 0,0 -1,0 -1,-1 0,0 0,0 0,-1 0,0 0,0 0,0 1,-1 1,-1 1,-1 0,0 1,-1 1,-1 1,0 2,0 2,0l0 0c0,-1 0,-1 0,-1 0,0 0,0 -1,0 0,0 0,0 0,0 0,0 0,0 -1,0 0,0 0,0 0,0 0,0 0,0 0,0 -1,0 -1,0 -1,0 0,0 0,0 0,0l0 -1c0,0 0,-1 1,-1 1,0 1,0 2,0 0,0 1,0 1,0 0,0 1,0 1,1 0,0 0,0 0,1 1,0 1,0 1,1l0 4 -1 0zm-3 -1c0,0 1,0 1,0 0,0 0,0 0,-1l0 -1c0,0 0,0 -1,0 0,0 0,1 0,1 0,0 -1,0 -1,0 0,0 0,0 0,0 0,1 0,1 0,1 1,0 1,0 1,0z"/>
   <path id="11" class="fil3" d="M178 63l0 -7 2 0c0,0 0,0 0,0 0,0 0,0 0,0 0,0 0,0 0,0 0,0 0,0 0,0l0 1c1,0 1,-1 1,-1 1,0 1,0 1,0 1,0 1,0 1,0l0 2c0,0 0,0 0,0 0,0 0,0 -1,0 0,0 0,0 0,0 0,0 0,0 0,0 -1,0 -1,0 -2,1l0 4 -2 0z"/>
   <path id="12" class="fil3" d="M187 56c1,0 1,0 2,0 0,0 1,1 1,1 0,0 1,1 1,1 0,1 0,1 0,2 0,0 0,1 0,1 0,1 -1,1 -1,1 0,1 -1,1 -1,1 -1,0 -1,0 -2,0 0,0 -1,0 -1,0 -1,0 -1,0 -1,-1 -1,0 -1,0 -1,-1 0,0 0,-1 0,-1 0,-1 0,-1 0,-2 0,0 0,-1 1,-1 0,0 0,-1 1,-1 0,0 1,0 1,0zm0 6c1,0 1,0 2,-1 0,0 0,-1 0,-1 0,-1 0,-2 0,-2 -1,0 -1,-1 -2,-1 0,0 -1,1 -1,1 0,0 0,1 0,2 0,0 0,1 0,1 0,1 1,1 1,1z"/>
   <path id="13" class="fil3" d="M195 53l0 6 0 0c0,0 0,0 0,0 0,0 0,-1 0,-1l2 -2c0,0 0,0 0,0 0,0 0,0 1,0l2 0 -2 3c0,0 -1,0 -1,0 0,0 0,0 0,0 0,0 0,1 1,1l2 3 -2 0c-1,0 -1,0 -1,0 0,0 0,0 0,0l-1 -3c-1,0 -1,0 -1,0 0,0 0,0 0,0l0 0 0 3 -3 0 0 -10 3 0z"/>
   <path id="14" class="fil3" d="M206 63c-1,0 -1,0 -1,0 0,0 0,0 0,0l0 0c0,0 -1,0 -1,0 0,0 0,0 0,0 0,0 -1,0 -1,0 0,0 0,0 -1,0 0,0 0,0 0,0 -1,0 -1,0 -1,0 0,0 -1,0 -1,-1 0,0 0,0 0,-1 0,0 0,0 0,0 1,-1 1,-1 1,-1 0,0 1,-1 1,-1 1,0 2,0 3,0l0 0c0,-1 -1,-1 -1,-1 0,0 0,0 0,0 -1,0 -1,0 -1,0 0,0 0,0 -1,0 0,0 0,0 0,0 0,0 0,0 0,0 -1,0 -1,0 -1,0 0,0 0,0 0,0l0 -1c0,0 1,-1 1,-1 1,0 1,0 2,0 0,0 1,0 1,0 0,0 1,0 1,1 0,0 0,0 0,1 1,0 1,0 1,1l0 4 -1 0zm-3 -1c0,0 1,0 1,0 0,0 0,0 1,-1l0 -1c-1,0 -1,0 -2,0 0,0 0,1 0,1 0,0 -1,0 -1,0 0,0 0,0 0,0 0,1 0,1 1,1 0,0 0,0 0,0z"/>
   <path id="15" class="fil3" d="M208 63l0 -10 2 0 0 4c1,-1 1,-1 1,-1 1,0 1,0 1,0 1,0 1,0 2,0 0,0 0,0 0,1 1,0 1,0 1,1 0,0 0,0 0,1l0 4 -2 0 0 -4c0,-1 0,-1 0,-1 -1,0 -1,0 -1,0 0,0 -1,0 -1,0 0,0 0,0 -1,0l0 5 -2 0z"/>
   <path id="16" class="fil3" d="M219 63l0 -10 4 0c1,0 1,0 2,0 0,0 1,0 1,1 0,0 1,0 1,1 0,0 0,0 0,1 0,0 0,0 0,0 0,1 0,1 0,1 0,0 -1,0 -1,1 0,0 0,0 -1,0 1,0 2,0 2,1 0,0 0,1 0,1 0,1 0,1 0,1 0,1 0,1 -1,1 0,1 0,1 -1,1 0,0 -1,0 -2,0l-4 0zm3 -4l0 3 1 0c1,0 1,-1 1,-1 0,0 1,0 1,0 0,0 0,0 0,0 0,-1 0,-1 0,-1 0,0 0,0 0,0 0,0 0,-1 0,-1 -1,0 -1,0 -1,0 0,0 0,0 -1,0l-1 0zm0 -2l1 0c0,0 0,0 1,0 0,0 0,0 0,0 0,0 0,0 1,0 0,0 0,-1 0,-1 0,0 0,0 0,-1 0,0 -1,0 -1,0 0,0 0,0 0,0 0,0 -1,0 -1,0l-1 0 0 2z"/>
   <path id="17" class="fil3" d="M232 56c0,0 1,0 1,0 1,0 1,0 1,1 0,0 1,0 1,1 0,0 0,1 0,1 0,0 0,1 0,1 0,0 0,0 0,0 0,0 0,0 0,0 0,0 0,0 0,0l-5 0c0,1 1,1 1,1 0,1 1,1 1,1 0,0 1,0 1,0 0,0 0,0 0,0 0,-1 1,-1 1,-1 0,0 0,0 0,0 0,0 0,0 0,0l1 1c0,0 0,1 -1,1 0,0 0,0 0,0 -1,0 -1,0 -1,0 -1,0 -1,0 -1,0 -1,0 -1,0 -2,0 0,0 0,0 -1,-1 0,0 0,0 -1,-1 0,0 0,-1 0,-2 0,0 0,0 0,-1 1,0 1,-1 1,-1 0,0 1,-1 1,-1 1,0 1,0 2,0zm0 1c-1,0 -1,0 -1,1 0,0 -1,0 -1,1l3 0c0,0 0,-1 0,-1 0,0 0,0 0,0 0,0 0,0 -1,-1 0,0 0,0 0,0z"/>
   <path id="18" class="fil3" d="M236 63l0 -7 2 0c0,0 0,0 0,0 0,0 0,0 0,0 0,0 0,0 0,0 0,0 0,0 0,0l0 1c1,0 1,-1 1,-1 1,0 1,0 1,0 1,0 1,0 1,0l0 2c0,0 0,0 0,0 0,0 0,0 0,0 0,0 0,0 -1,0 0,0 0,0 0,0 -1,0 -1,0 -1,1l0 4 -3 0z"/>
   <path id="19" class="fil3" d="M247 58c0,0 0,0 0,0 0,0 -1,0 -1,0 0,0 0,0 0,0 0,0 0,0 0,0 0,0 -1,0 -1,-1 0,0 0,0 0,0 0,0 -1,0 -1,1 0,0 0,0 0,0 0,0 0,0 0,0 0,0 0,1 0,1 1,0 1,0 1,0 0,0 0,0 1,0 0,0 0,0 0,0 0,0 1,0 1,1 0,0 0,0 0,0 0,0 0,1 0,1 0,0 0,1 0,1 0,0 0,1 0,1 -1,0 -1,0 -1,0 -1,0 -1,0 -2,0 0,0 0,0 -1,0 0,0 0,0 0,0 0,0 -1,0 -1,0 0,0 0,0 0,0l0 -1c0,0 0,0 0,0 0,-1 1,-1 1,-1 0,0 0,0 0,1 0,0 0,0 0,0 0,0 1,0 1,0 0,0 0,0 0,0 1,0 1,0 1,0 0,0 0,0 0,0 0,0 0,0 0,0 0,-1 0,-1 0,-1 0,0 0,0 0,0 0,0 0,0 0,0 0,0 -1,0 -1,0 0,-1 0,-1 0,-1 -1,0 -1,0 -1,0 0,0 0,0 -1,0 0,-1 0,-1 0,-1 0,0 0,0 0,-1 0,0 0,0 0,-1 0,0 0,0 1,0 0,-1 0,-1 0,-1 1,0 1,0 2,0 0,0 0,0 1,0 0,0 0,0 0,0 0,0 1,0 1,0 0,1 0,1 0,1l0 1z"/>
   <path id="20" class="fil3" d="M254 63c-1,0 -1,0 -1,0 0,0 0,0 0,0l0 0c0,0 -1,0 -1,0 0,0 0,0 0,0 0,0 -1,0 -1,0 0,0 0,0 -1,0 0,0 0,0 0,0 -1,0 -1,0 -1,0 0,0 -1,0 -1,-1 0,0 0,0 0,-1 0,0 0,0 0,0 1,-1 1,-1 1,-1 0,0 1,-1 1,-1 1,0 2,0 3,0l0 0c0,-1 -1,-1 -1,-1 0,0 0,0 -1,0 0,0 0,0 0,0 0,0 0,0 -1,0 0,0 0,0 0,0 0,0 0,0 0,0 -1,0 -1,0 -1,0 0,0 0,0 0,0l0 -1c0,0 0,-1 1,-1 1,0 1,0 2,0 0,0 1,0 1,0 0,0 1,0 1,1 0,0 0,0 0,1 1,0 1,0 1,1l0 4 -1 0zm-3 -1c0,0 1,0 1,0 0,0 0,0 1,-1l0 -1c-1,0 -1,0 -2,0 0,0 0,1 0,1 0,0 -1,0 -1,0 0,0 0,0 0,0 0,1 0,1 1,1 0,0 0,0 0,0z"/>
   <path id="21" class="fil3" d="M256 63l0 -7 2 0c0,0 0,0 0,0 0,0 0,0 0,0l0 1c0,0 1,-1 1,-1 0,0 0,0 0,0 0,0 0,0 1,0 0,0 0,0 0,0 1,0 1,0 1,0 1,0 1,1 1,1 0,0 0,0 0,0 1,-1 1,-1 1,-1 0,0 0,0 1,0 0,0 0,0 0,0 1,0 1,0 1,0 1,0 1,0 1,1 1,0 1,0 1,0 0,1 0,1 0,2l0 4 -2 0 0 -4c0,-1 -1,-1 -1,-1 -1,0 -1,0 -1,0 0,0 0,0 0,1l0 4 -2 0 0 -4c0,-1 -1,-1 -1,-1 0,0 0,0 0,0 -1,0 -1,0 -1,0 0,0 0,0 -1,0l0 5 -2 0z"/>
   <path id="22" class="fil3" d="M274 63c-1,0 -1,0 -1,0 0,0 0,0 0,0l0 0c0,0 -1,0 -1,0 0,0 0,0 0,0 -1,0 -1,0 -1,0 0,0 0,0 -1,0 0,0 0,0 -1,0 0,0 0,0 0,0 0,0 -1,0 -1,-1 0,0 0,0 0,-1 0,0 0,0 0,0 0,-1 1,-1 1,-1 0,0 1,-1 1,-1 1,0 2,0 2,0l0 0c0,-1 0,-1 0,-1 0,0 0,0 -1,0 0,0 0,0 0,0 0,0 0,0 -1,0 0,0 0,0 0,0 0,0 0,0 0,0 -1,0 -1,0 -1,0 0,0 0,0 0,0l0 -1c0,0 0,-1 1,-1 1,0 1,0 2,0 0,0 1,0 1,0 0,0 1,0 1,1 0,0 0,0 0,1 1,0 1,0 1,1l0 4 -1 0zm-3 -1c0,0 1,0 1,0 0,0 0,0 0,-1l0 -1c0,0 0,0 -1,0 0,0 0,1 0,1 0,0 -1,0 -1,0 0,0 0,0 0,0 0,1 0,1 0,1 1,0 1,0 1,0z"/>
   <polygon id="23" class="fil3" points="282,63 279,63 279,53 282,53 "/>
   <path id="24" class="fil3" d="M284 63l0 -10 2 0 0 4c0,-1 0,-1 1,-1 0,0 0,0 1,0 0,0 1,0 1,0 0,0 1,0 1,1 0,0 0,1 0,1 1,0 1,1 1,2 0,0 0,1 -1,1 0,1 0,1 0,1 -1,1 -1,1 -1,1 -1,0 -1,0 -2,0 0,0 0,0 0,0 0,0 -1,0 -1,0 0,0 0,0 0,0 0,0 0,0 0,0l0 0c-1,0 -1,0 -1,0 0,0 0,0 0,0l-1 0zm3 -5c0,0 0,0 0,0 0,0 -1,0 -1,0 0,0 0,0 0,0 0,0 0,0 0,0l0 3c0,1 0,1 0,1 0,0 1,0 1,0 0,0 0,0 0,0 1,0 1,0 1,-1 0,0 0,0 0,0 0,-1 0,-1 0,-1 0,-1 0,-1 0,-1 0,-1 0,-1 0,-1 0,0 0,0 0,0 -1,0 -1,0 -1,0z"/>
   <path id="25" class="fil3" d="M294 56l0 5c0,0 0,0 0,0 0,1 1,1 1,1 0,0 0,0 1,0 0,0 0,-1 0,-1l0 -5 2 0 0 7 -1 0c0,0 0,0 -1,0l0 0c0,0 0,0 0,0 0,0 0,0 -1,0 0,0 0,0 0,0 0,0 -1,0 -1,0 0,0 -1,0 -1,0 0,0 0,0 -1,0 0,-1 0,-1 0,-1 0,-1 0,-1 0,-1l0 -5 2 0z"/>
  </g>
 </g>
</svg>
