<?xml version="1.0" encoding="UTF-8"?>
<!DOCTYPE svg PUBLIC "-//W3C//DTD SVG 1.1//EN" "http://www.w3.org/Graphics/SVG/1.1/DTD/svg11.dtd">
<!-- Creator: CorelDRAW X7 -->
<svg xmlns="http://www.w3.org/2000/svg" xml:space="preserve" width="300px" height="140px" version="1.1" style="shape-rendering:geometricPrecision; text-rendering:geometricPrecision; image-rendering:optimizeQuality; fill-rule:evenodd; clip-rule:evenodd"
viewBox="0 0 300 140"
 xmlns:xlink="http://www.w3.org/1999/xlink">
 <defs>
  <style type="text/css">
   <![CDATA[
    .fil0 {fill:#4698D3}
    .fil1 {fill:white}
   ]]>
  </style>
 </defs>
 <g id="Layer_x0020_1">
  <metadata id="CorelCorpID_0Corel-Layer"/>
  <g id="_2368701305712">
   <path class="fil0" d="M11 135l48 0 1 -3 -46 0c0,-3 1,-10 2,-14 2,-8 5,-17 9,-25 1,-4 3,-7 5,-11 2,-3 4,-7 6,-10 5,-6 10,-13 15,-18 4,-4 8,-8 12,-12 2,-2 3,-3 5,-4 3,-2 6,-4 10,-7 3,-2 6,-4 10,-6l11 -5c16,-7 35,-11 55,-11 21,0 38,4 55,11 5,2 18,9 22,11 5,4 14,10 18,14 6,6 11,11 16,17 10,13 19,28 24,43 2,7 6,20 6,27l-214 0c1,-5 3,-7 1,-14 -1,-2 -2,-4 -3,-5 -1,-1 -2,-1 -2,-2 -1,-1 -2,-1 -3,-2 1,-3 1,-6 -1,-8 -2,-2 -5,-4 -8,-3l-1 28 -43 0c0,-8 8,-28 11,-35 3,-6 6,-11 9,-15 1,-3 3,-5 5,-7 1,-3 3,-5 5,-7 1,1 3,1 5,2 1,1 3,1 5,2 11,3 22,3 34,2 15,-2 26,-11 43,-4 6,3 9,7 15,11 6,5 21,10 26,-1 1,-3 0,-8 5,-8 5,1 15,8 19,7 0,-1 -6,-4 -8,-5 -3,-3 -4,-4 -7,-7 -6,-6 -16,-6 -15,3 1,3 4,6 1,10 -5,4 -16,-1 -13,-11 3,-10 19,-12 29,-11 8,1 13,3 20,6 10,4 23,6 35,5 4,-1 8,-2 12,-2 1,2 3,4 5,6 5,7 10,15 14,23 4,8 8,17 10,26 1,3 2,8 2,10l-44 0c0,-6 0,-12 0,-18 0,-4 0,-5 -2,-8 -5,-5 -15,-3 -15,8 0,5 0,12 0,18l-9 0c12,-11 4,-28 -9,-28 -14,-1 -21,15 -13,25 0,1 2,2 3,3l-8 0c-1,-5 -4,-8 -9,-9l0 -2c2,-1 4,-1 5,-3 2,-2 2,-4 2,-7 -1,-5 -4,-8 -10,-7l0 28 -11 0 0 -7 5 0c0,-5 -1,-3 -5,-3l0 -15 7 -1 0 -2c-2,-1 -8,0 -10,0l0 31 17 0 0 -9c2,0 4,2 5,3 2,2 1,3 2,6l41 0c0,-4 -1,-23 0,-25 1,-2 3,-3 5,-3 3,-1 5,1 6,3 1,3 -1,20 0,25l50 0c1,-4 -4,-21 -6,-25 -2,-6 -4,-11 -7,-17 -8,-15 -18,-28 -31,-40 -3,-3 -6,-5 -9,-7 -6,-5 -13,-9 -20,-13 -3,-1 -7,-3 -11,-5 -12,-7 -38,-10 -53,-10 -10,0 -19,1 -28,3 -12,2 -20,5 -30,10 -12,5 -24,13 -34,22 -6,6 -10,9 -15,16 -3,3 -5,5 -7,9 -5,6 -8,13 -12,20 -2,4 -3,8 -4,12 -2,3 -7,21 -7,25l50 0 0 -14c2,-1 2,-1 3,-1 1,-1 2,-2 3,-2 3,1 5,5 6,8 2,5 0,8 -2,12 -5,0 -12,-1 -14,2 -2,2 -1,4 0,6 2,1 5,1 7,0 3,-1 6,-2 8,-4 1,-1 2,-1 4,-1l149 0c23,0 45,0 67,0 1,-6 -4,-22 -6,-28 -5,-16 -13,-32 -23,-45 -4,-5 -8,-9 -12,-14l-5 -4c-26,-24 -59,-38 -98,-38 -23,0 -44,5 -62,14 -3,1 -4,2 -6,3 -11,6 -21,13 -30,21 -3,3 -10,10 -12,13 -7,8 -13,16 -18,26 -6,12 -10,24 -13,37 -1,4 -3,11 -2,15zm171 -23c5,-1 5,-11 0,-11l0 11zm24 -11c-17,3 -12,28 4,25 7,-1 12,-7 11,-15 -1,-6 -7,-12 -15,-10z"/>
   <path class="fil0" d="M4 141l56 0c0,-1 -1,-2 -1,-3l-52 0c1,-18 9,-40 16,-55 4,-8 9,-15 14,-21 2,-4 5,-7 8,-10 1,-2 2,-3 4,-5l2 -2c1,-1 2,-1 2,-2 11,-10 29,-22 43,-28 18,-7 36,-12 58,-12 25,0 50,7 70,18 11,6 23,14 31,22 1,1 1,1 2,2l11 11c7,10 11,15 17,27 8,15 16,37 16,55 -18,0 -38,0 -57,0l-156 0c-2,0 -5,0 -7,0 -2,0 -2,0 -3,1 0,0 -1,1 -2,2l228 0c0,-8 -3,-24 -5,-31 -5,-16 -11,-30 -20,-44 -3,-4 -9,-11 -12,-15 -3,-3 -6,-6 -9,-9 -5,-5 -14,-13 -20,-16 -2,-1 -4,-3 -6,-4 -1,-1 -3,-2 -5,-3 -4,-2 -8,-4 -12,-6 -37,-17 -84,-16 -121,0 -15,6 -31,17 -43,29l-9 9c-18,20 -31,46 -36,73 -1,4 -2,12 -2,17z"/>
   <path class="fil0" d="M122 129c4,0 18,0 24,0 1,0 1,0 2,0l1 0c1,0 1,-8 1,-10l8 0 0 10 3 0 0 -31 -3 0 0 18 -8 0 0 -18 -3 0 0 28 -22 0 0 -7 5 0 0 -3 -5 0 0 -15 7 -1 0 -2 -10 0 0 31z"/>
   <path class="fil0" d="M118 98l-3 0c0,1 0,15 0,18 0,3 0,5 -2,7 -3,4 -9,4 -12,0 -2,-2 -2,-4 -2,-7 0,-3 0,-16 0,-18l-3 0c0,2 0,21 0,23 1,3 3,4 3,5l-10 0 -1 -28 -2 0c-1,1 0,24 0,29 -1,3 -1,2 4,2 4,0 8,0 12,0 4,0 7,0 10,-1 3,-2 5,-4 6,-7 0,-2 0,-21 0,-23z"/>
   <path class="fil1" d="M67 112c6,-1 6,-11 0,-11l0 11z"/>
   <path class="fil1" d="M74 135l-3 0 -4 0c-3,0 -3,3 1,3 2,-1 5,-2 6,-3z"/>
  </g>
 </g>
</svg>
