<?xml version="1.0" encoding="UTF-8"?>
<!DOCTYPE svg PUBLIC "-//W3C//DTD SVG 1.1//EN" "http://www.w3.org/Graphics/SVG/1.1/DTD/svg11.dtd">
<!-- Creator: CorelDRAW X7 -->
<svg xmlns="http://www.w3.org/2000/svg" xml:space="preserve" width="300px" height="120px" version="1.1" style="shape-rendering:geometricPrecision; text-rendering:geometricPrecision; image-rendering:optimizeQuality; fill-rule:evenodd; clip-rule:evenodd"
viewBox="0 0 300 120"
 xmlns:xlink="http://www.w3.org/1999/xlink">
 <defs>
  <style type="text/css">
   <![CDATA[
    .str1 {stroke:#13EB30;stroke-width:2.99982;stroke-linecap:round;stroke-linejoin:round}
    .str0 {stroke:#F3F400;stroke-width:2.99982;stroke-linecap:round;stroke-linejoin:round}
    .fil0 {fill:none}
    .fil2 {fill:#13EB30}
    .fil1 {fill:#2261CB}
   ]]>
  </style>
 </defs>
 <g id="Layer_x0020_1">
  <metadata id="CorelCorpID_0Corel-Layer"/>
  <g id="_2368701294256">
   <path class="fil0 str0" d="M131 50c-2,-3 -4,-6 -4,-10 0,-8 7,-15 16,-15 9,0 16,7 16,15 0,4 -2,7 -4,10"/>
   <path class="fil1" d="M0 117l18 1c0,-1 0,-2 0,-2 1,3 0,-1 1,-3 8,6 19,7 28,4 31,-11 20,-57 -16,-50 -6,1 -8,4 -12,6l0 -41 -19 0 0 85zm27 -36c-17,7 -5,29 10,23 16,-7 6,-29 -10,-23z"/>
   <path class="fil1" d="M280 113l2 5 18 0 0 -51 -18 0c-1,2 -1,1 -1,3 0,0 -1,2 -1,2 -9,-5 -16,-9 -28,-4 -38,13 -11,70 28,45zm-17 -32c-17,6 -7,29 9,23 17,-6 7,-29 -9,-23z"/>
   <path class="fil1" d="M168 80l26 0c-2,4 -11,15 -14,19 -2,3 -12,15 -14,18l58 1 0 -14 -26 0c1,-5 24,-32 25,-37l-55 0 0 13z"/>
   <path class="fil1" d="M81 117l19 1c0,-11 -1,-27 3,-32 4,-7 12,-7 17,-4l0 -15c-8,-2 -13,0 -19,5 -3,-6 5,-5 -20,-5l0 50z"/>
   <path class="fil1" d="M152 117l1 -50 -19 0c-1,12 0,29 0,42 -1,9 -3,10 18,8z"/>
   <circle class="fil2" cx="143" cy="41" r="6"/>
   <path class="fil0 str0" d="M119 26c-3,5 -4,9 -5,14 1,7 2,10 5,14"/>
   <path class="fil0 str0" d="M107 22c-6,10 -5,14 -5,19 0,7 1,12 5,18"/>
   <path class="fil0 str0" d="M167 26c4,5 5,9 5,14 0,7 -2,10 -5,14"/>
   <path class="fil0 str0" d="M180 22c5,10 5,14 5,19 -1,7 -2,12 -5,18"/>
   <path class="fil0 str1" d="M157 19c-4,-3 -8,-5 -15,-5 -7,1 -10,2 -14,5"/>
   <path class="fil0 str1" d="M160 6c-6,-3 -13,-4 -18,-4 -8,0 -13,1 -19,4"/>
   <path class="fil0 str1" d="M132 29c3,-2 7,-4 11,-4 5,0 8,2 11,4"/>
  </g>
 </g>
</svg>
