<?xml version="1.0" encoding="UTF-8"?>
<!DOCTYPE svg PUBLIC "-//W3C//DTD SVG 1.1//EN" "http://www.w3.org/Graphics/SVG/1.1/DTD/svg11.dtd">
<!-- Creator: CorelDRAW X7 -->
<svg xmlns="http://www.w3.org/2000/svg" xml:space="preserve" width="300px" height="150px" version="1.1" style="shape-rendering:geometricPrecision; text-rendering:geometricPrecision; image-rendering:optimizeQuality; fill-rule:evenodd; clip-rule:evenodd"
viewBox="0 0 300 150"
 xmlns:xlink="http://www.w3.org/1999/xlink">
 <defs>
  <style type="text/css">
   <![CDATA[
    .fil0 {fill:#E40D0D}
   ]]>
  </style>
 </defs>
 <g id="Layer_x0020_1">
  <metadata id="CorelCorpID_0Corel-Layer"/>
  <g id="_2368706860320">
   <path class="fil0" d="M117 77c1,18 -27,1 -31,14 21,0 42,5 45,-16 3,-18 6,-35 9,-53 -7,1 -11,4 -14,8 0,-3 1,-5 3,-7 -7,-1 -22,-1 -27,2 -6,5 -7,11 -8,21 -1,7 -5,20 -2,25 5,8 15,6 25,6zm-2 -49c-7,3 -6,10 -9,24 -1,8 -7,25 9,20 6,-2 6,-17 7,-25 1,-7 6,-25 -7,-19z"/>
   <path class="fil0" d="M199 74c0,0 0,0 0,1 0,0 1,0 1,0 3,2 4,2 9,2 7,0 8,0 9,-5 -13,-1 -11,1 -8,-20 2,-9 4,-20 5,-29 -36,0 -42,-5 -46,22 -1,8 -6,23 0,29 3,3 9,3 15,3 8,0 9,1 15,-3zm1 -47c-16,0 -14,1 -17,16 -1,5 -6,25 -2,28 3,3 10,1 12,-2 2,-3 7,-38 7,-42z"/>
   <path class="fil0" d="M56 23c-13,5 -12,19 -15,35 -1,8 -1,15 6,18 4,2 20,2 24,0 13,-4 13,-20 15,-35 1,-8 1,-15 -6,-18 -3,-1 -20,-1 -24,0zm8 5c-5,1 -5,4 -6,9 -1,5 -1,10 -2,15 -2,8 -7,24 7,20 7,-2 7,-14 8,-24 2,-10 7,-24 -7,-20z"/>
   <path class="fil0" d="M-1 91c25,2 29,-3 32,-21 2,-16 5,-32 7,-48 -17,2 -16,19 -19,35 -1,7 -2,16 -4,23 -2,12 -13,1 -16,11z"/>
   <path class="fil0" d="M127 91c24,1 27,-3 30,-23 2,-15 6,-31 7,-45 -17,-1 -17,21 -19,33 -1,8 -2,15 -3,22 -3,14 -12,3 -15,13z"/>
   <path class="fil0" d="M151 22c14,0 16,-12 17,-23 -13,0 -17,13 -17,23z"/>
   <path class="fil0" d="M25 22c6,1 11,-3 13,-6 3,-5 3,-11 4,-17 -15,1 -16,14 -17,23z"/>
   <g>
    <path class="fil0" d="M258 133c3,0 5,2 10,2 3,0 7,0 11,0 -1,14 -22,1 -27,10 4,2 19,1 25,1 8,0 12,-5 14,-12 3,-14 5,-29 8,-44 -9,1 -13,6 -14,14 -2,6 -3,13 -4,19 -1,6 -5,11 -12,7 -4,-5 4,-32 5,-40 -12,2 -13,6 -15,17 -2,10 -5,17 -1,26z"/>
    <path class="fil0" d="M158 146c5,0 7,-2 10,-4 3,-3 2,-3 4,-7 24,-2 24,3 30,-25 1,-8 4,-17 -6,-19 -4,-1 -23,-1 -27,0l-11 55zm15 -15c17,1 14,-3 16,-18 3,-14 8,-20 -10,-19l-6 37z"/>
    <path class="fil0" d="M232 143c0,0 1,0 1,1 0,0 0,0 0,0 4,2 4,2 9,2 6,0 7,0 9,-4 -12,-2 -11,0 -8,-20 1,-9 4,-19 4,-28 -34,0 -39,-4 -43,22 -1,7 -6,21 0,27 3,3 8,3 14,3 8,0 8,1 14,-3zm2 -45c-16,0 -14,1 -17,15 -1,6 -5,24 -2,27 3,3 10,1 12,-1 2,-3 6,-37 7,-41z"/>
   </g>
  </g>
 </g>
</svg>
