<?xml version="1.0" encoding="UTF-8"?>
<!DOCTYPE svg PUBLIC "-//W3C//DTD SVG 1.1//EN" "http://www.w3.org/Graphics/SVG/1.1/DTD/svg11.dtd">
<!-- Creator: CorelDRAW X7 -->
<svg xmlns="http://www.w3.org/2000/svg" xml:space="preserve" width="300px" height="150px" version="1.1" style="shape-rendering:geometricPrecision; text-rendering:geometricPrecision; image-rendering:optimizeQuality; fill-rule:evenodd; clip-rule:evenodd"
viewBox="0 0 300 150"
 xmlns:xlink="http://www.w3.org/1999/xlink">
 <defs>
  <style type="text/css">
   <![CDATA[
    .fil4 {fill:#332C2B}
    .fil1 {fill:#1D9E5D}
    .fil2 {fill:#298182}
    .fil0 {fill:#3A71B2}
    .fil3 {fill:#A2A2A2}
   ]]>
  </style>
 </defs>
 <g id="Layer_x0020_1">
  <metadata id="CorelCorpID_0Corel-Layer"/>
  <g id="_2368998761808">
   <g>
    <path class="fil0" d="M51 55l0 17c0,3 0,6 0,8 0,2 0,7 0,8l0 0c0,2 0,26 0,29l13 0 0 -50c0,-1 0,-2 0,-3 0,0 0,-1 0,-2 0,-7 -7,-13 -13,-12l0 5z"/>
    <path class="fil1" d="M3 106c-1,3 2,7 4,8 2,2 4,3 9,3l0 -44 -2 -1c0,0 -1,-1 -1,-1 0,0 0,0 0,0 0,-1 -2,-2 -3,-4l-2 -4c-2,-2 0,-1 -1,-2 -1,-2 -1,-2 -2,-2 0,-1 -1,-3 -1,-4 0,-1 0,-1 0,-1l-1 -2c-1,-1 0,-1 0,-1 -1,5 0,9 0,14 0,4 0,9 0,13l0 28z"/>
    <path class="fil2" d="M3 106l0 -28c0,-4 0,-9 0,-13 0,-5 -1,-9 0,-14 0,0 -1,0 0,1l1 2c0,0 0,0 0,1 0,1 1,3 1,4 1,0 1,0 2,2 1,1 -1,0 1,2l2 4c1,2 3,3 3,4 0,0 0,0 0,0 0,0 1,1 1,1l2 1 6 6c7,5 16,9 25,9 0,2 -1,3 -2,4 2,-1 5,-3 6,-4l0 0c-1,0 -3,-4 -4,-5 0,2 0,2 0,4 -8,-3 -16,-9 -20,-14 -1,0 -2,-2 -2,-3 -1,-1 -2,-2 -3,-4 -1,-2 -2,-5 -4,-7 0,-2 -3,-6 -2,-9 0,-9 -10,-10 -13,-4 -1,3 -1,9 -1,12 0,5 0,47 1,48z"/>
    <path class="fil3" d="M51 72l0 -17c-1,0 -1,2 -2,2 0,2 -1,2 -1,3 -2,3 -6,7 -9,9 -1,0 -1,1 -2,1 -1,1 -2,1 -3,1 1,1 6,2 8,2 3,0 5,0 9,-1z"/>
    <path class="fil2" d="M11 29c-8,1 -6,13 2,12 3,-1 5,-4 5,-7 -1,-3 -4,-6 -7,-5z"/>
    <path class="fil0" d="M52 36c-7,2 -4,13 4,11 2,0 5,-3 4,-7 -1,-3 -4,-5 -8,-4z"/>
    <path class="fil3" d="M27 73c1,0 5,-1 6,-1 -1,-1 -2,-2 -6,-4 -3,-2 -4,-3 -6,-5 -1,-1 -2,-4 -3,-4 2,2 3,5 4,7 1,2 2,3 3,4 0,1 1,3 2,3z"/>
   </g>
   <path class="fil0" d="M90 113c-5,0 -9,-2 -13,-5 -4,-4 -6,-8 -6,-13l0 -34 8 0 0 34c0,3 1,5 3,7 3,2 5,3 8,3 3,0 5,-1 8,-3 2,-2 3,-4 3,-7l0 -34 8 0 0 34c0,5 -2,9 -6,13 -4,3 -8,5 -13,5zm73 -52l-18 42 -19 -42 -8 0 0 52 8 0 0 -33 14 33 9 0 15 -33 0 33 7 0 0 -52 -8 0zm25 0l-8 0 0 52 8 0 0 -52zm7 0l0 8 11 0 0 44 8 0 0 -44 11 0 0 -8 -30 0zm37 0l0 52 27 0 0 -8 -19 0 0 -14 15 0 0 -8 -15 0 0 -14 19 0 0 -8 -27 0zm58 52c-8,0 -14,-2 -19,-7 -5,-6 -8,-12 -8,-19 0,-8 3,-14 8,-19 5,-5 11,-8 19,-8 3,0 7,1 10,2l-3 8c-3,-1 -5,-2 -7,-2 -6,0 -10,2 -14,6 -3,3 -5,8 -5,13 0,5 2,9 5,13 4,4 8,5 14,5 1,0 3,0 4,0l0 -14 -8 0 0 -8 16 0 0 27 -2 1c-3,2 -7,2 -10,2z"/>
   <path class="fil4" d="M13 127l3 0c0,0 1,0 1,-1 0,0 1,0 1,-1 0,-1 -1,-1 -1,-1 0,-1 -1,-1 -1,-1l-3 0 0 4zm0 8l-3 0 0 -14 6 0c1,0 2,0 3,1 0,1 1,2 1,3 0,1 -1,2 -1,3 -1,1 -2,1 -3,1l-3 0 0 6zm8 -14l0 2 3 0 0 12 2 0 0 -12 3 0 0 -2 -8 0zm12 13c0,-1 0,-1 0,-1 0,-1 -1,-1 -1,-1 -1,0 -1,0 -1,1 0,0 -1,0 -1,1 0,0 1,0 1,1 0,0 0,0 1,0 0,0 1,0 1,0 0,-1 0,-1 0,-1zm15 -13l-9 14 2 0 2 -3 5 0 0 3 2 0 0 -14 -2 0zm0 3l0 6 -3 0 3 -6zm13 -3l0 10 -6 -10 -2 0 0 14 2 0 0 -10 6 10 2 0 0 -14 -2 0zm10 14c-2,0 -3,0 -4,-1 -1,-1 -1,-2 -1,-4l0 -9 2 0 0 9c0,1 0,2 1,2 0,1 1,1 2,1 0,0 1,0 2,-1 0,0 0,-1 0,-2l0 -9 3 0 0 9c0,2 -1,3 -2,4 -1,1 -2,1 -3,1zm14 0c-2,0 -4,-1 -5,-2 -2,-1 -3,-3 -3,-5 0,-2 1,-4 3,-5 1,-2 3,-2 5,-2 1,0 2,0 2,0l0 2c-1,0 -2,0 -2,0 -2,0 -3,0 -4,1 -1,1 -1,3 -1,4 0,1 0,3 1,4 1,1 2,1 4,1 0,0 1,0 1,0l0 -4 -2 0 0 -2 4 0 0 7 -1 1c0,0 -1,0 -2,0zm5 -14l0 14 7 0 0 -2 -5 0 0 -4 4 0 0 -2 -4 0 0 -4 5 0 0 -2 -7 0zm11 6l0 -4 3 0c0,0 1,0 1,1 1,0 1,0 1,1 0,1 0,1 -1,1 0,1 -1,1 -1,1l-3 0zm4 2c1,-1 2,-1 2,-2 1,0 1,-1 1,-2 0,-1 0,-2 -1,-3 -1,-1 -2,-1 -3,-1l-5 0 0 14 2 0 0 -6 2 0 3 6 3 0 -4 -6zm13 -8l-9 14 2 0 2 -3 5 0 0 3 2 0 0 -14 -2 0zm0 3l0 6 -3 0 3 -6zm13 -3l0 6 -6 0 0 -6 -2 0 0 14 2 0 0 -6 6 0 0 6 2 0 0 -14 -2 0zm22 0l-6 11 -4 -11 -3 0 0 14 2 0 0 -9 4 9 3 0 4 -9 0 9 2 0 0 -14 -2 0zm6 0l-2 0 0 14 2 0 0 -14zm2 0l0 2 3 0 0 12 2 0 0 -12 3 0 0 -2 -8 0zm12 6l0 -4 3 0c1,0 1,0 2,1 0,0 0,0 0,1 0,1 0,1 0,1 -1,1 -1,1 -2,1l-3 0zm5 2c1,-1 1,-1 2,-2 0,0 0,-1 0,-2 0,-1 0,-2 -1,-3 -1,-1 -1,-1 -3,-1l-5 0 0 14 2 0 0 -6 3 0 3 6 2 0 -3 -6zm12 -8l-9 14 3 0 2 -3 5 0 0 3 2 0 0 -14 -3 0zm1 3l0 6 -4 0 4 -6zm12 -3l-3 0 0 14 3 0 0 -14zm10 0l0 10 -6 -10 -2 0 0 14 2 0 0 -10 6 10 2 0 0 -14 -2 0zm4 0l0 2 3 0 0 12 2 0 0 -12 3 0 0 -2 -8 0zm10 0l0 14 7 0 0 -2 -5 0 0 -4 4 0 0 -2 -4 0 0 -4 5 0 0 -2 -7 0zm11 6l0 -4 3 0c1,0 1,0 1,1 1,0 1,0 1,1 0,1 0,1 -1,1 0,1 0,1 -1,1l-3 0zm5 2c0,-1 1,-1 1,-2 1,0 1,-1 1,-2 0,-1 0,-2 -1,-3 -1,-1 -2,-1 -3,-1l-5 0 0 14 2 0 0 -6 2 0 3 6 3 0 -3 -6zm11 6c-2,0 -4,-1 -5,-2 -2,-1 -2,-3 -2,-5 0,-2 0,-4 2,-5 1,-2 3,-2 5,-2 1,0 2,0 3,0l-1 2c-1,0 -2,0 -2,0 -2,0 -3,0 -4,1 -1,1 -1,3 -1,4 0,1 0,3 1,4 1,1 2,1 4,1 0,0 1,0 1,0l0 -4 -2 0 0 -2 4 0 0 7 0 1c-1,0 -2,0 -3,0zm7 -8l0 -4 3 0c1,0 1,0 1,1 1,0 1,0 1,1 0,1 0,1 -1,1 0,1 0,1 -1,1l-3 0zm5 2c0,-1 1,-1 1,-2 1,0 1,-1 1,-2 0,-1 0,-2 -1,-3 -1,-1 -2,-1 -3,-1l-5 0 0 14 2 0 0 -6 2 0 3 6 3 0 -3 -6zm12 -8l-9 14 2 0 3 -3 4 0 0 3 3 0 0 -14 -3 0zm0 3l0 6 -3 0 3 -6zm9 11c0,0 0,0 0,0 -1,0 -2,0 -3,-1 -1,0 -1,-1 -2,-2l2 0c0,0 1,0 1,1 1,0 1,0 2,0 1,0 1,0 2,-1 0,0 1,0 1,-1 0,-1 -1,-1 -3,-2 -3,-1 -5,-2 -5,-4 0,-2 1,-3 2,-4 1,0 2,0 3,0 2,0 3,0 4,1l-2 2c0,-1 -1,-1 -2,-1 0,0 -1,0 -1,0 -1,0 -1,1 -2,2 0,1 1,1 3,2 2,0 3,1 4,2 1,1 1,1 1,2 0,1 -1,2 -2,3 -1,1 -2,1 -3,1zm9 -14l-3 0 0 14 3 0 0 -14z"/>
  </g>
 </g>
</svg>
