<?xml version="1.0" encoding="UTF-8"?>
<!DOCTYPE svg PUBLIC "-//W3C//DTD SVG 1.1//EN" "http://www.w3.org/Graphics/SVG/1.1/DTD/svg11.dtd">
<!-- Creator: CorelDRAW X7 -->
<svg xmlns="http://www.w3.org/2000/svg" xml:space="preserve" width="300px" height="65px" version="1.1" style="shape-rendering:geometricPrecision; text-rendering:geometricPrecision; image-rendering:optimizeQuality; fill-rule:evenodd; clip-rule:evenodd"
viewBox="0 0 300 65"
 xmlns:xlink="http://www.w3.org/1999/xlink">
 <defs>
  <style type="text/css">
   <![CDATA[
    .fil1 {fill:#636365}
    .fil0 {fill:#F0C024}
    .fil2 {fill:#636365;fill-rule:nonzero}
    .fil3 {fill:#F0C024;fill-rule:nonzero}
   ]]>
  </style>
 </defs>
 <g id="Layer_x0020_1">
  <metadata id="CorelCorpID_0Corel-Layer"/>
  <g id="_2368998767504">
   <path class="fil0" d="M2 38c1,2 2,2 3,4l22 22c2,2 3,4 8,3 1,-1 1,-1 2,-2l20 -20c2,-1 6,-5 6,-7 0,0 0,0 0,0l1 -1c0,0 0,0 0,0l0 -2 -1 -1c0,0 0,0 0,0 0,-2 -5,-6 -6,-7 -6,-6 -13,-13 -19,-19 -3,-3 -2,-2 -4,-3l-2 0c-2,1 -2,0 -4,3 -1,1 -2,1 -2,2l-10 9c-2,3 -5,5 -7,8 -1,1 -3,2 -4,3 -2,3 -2,2 -3,4l0 4zm30 -30c-1,0 -1,0 -2,1l-23 23c-2,2 -5,4 -1,7l19 20c1,1 3,2 4,3 1,1 2,3 4,3 2,-1 3,-2 4,-3 2,-2 3,-3 4,-4l18 -18c1,-1 3,-2 2,-5 0,-1 0,-1 -1,-2 -1,0 -1,-1 -2,-2l-11 -10c-2,-3 -4,-5 -7,-7 -1,-2 -2,-3 -3,-4 -1,-1 -3,-3 -5,-2z"/>
   <path class="fil1" d="M11 36c1,0 16,0 18,0l0 16c-2,-1 -12,-13 -14,-13 -1,0 -2,1 0,3l10 11c3,2 5,5 6,4 1,-1 1,-3 1,-4 0,-5 0,-12 0,-17 0,1 -1,1 -2,1l-8 0c-3,0 -7,-1 -11,-1z"/>
   <path class="fil1" d="M55 35c-4,1 -8,2 -12,2l-8 0c-1,0 -1,-1 -2,-1 1,2 0,14 0,18 0,2 0,3 2,3 2,0 1,-1 1,-3l0 -18c3,0 6,0 9,0 1,0 9,0 10,-1z"/>
   <path class="fil1" d="M49 40c0,0 -8,8 -9,9 -1,0 -1,1 -1,2 0,1 1,1 2,1 1,0 3,-2 3,-3 1,-1 2,-2 3,-3l4 -3c1,-2 0,-4 -2,-3z"/>
   <path class="fil1" d="M45 38c-1,1 -2,2 -3,3 -1,0 -4,4 -4,4 -1,2 1,3 2,2 0,0 6,-6 7,-7 0,-1 -1,-2 -2,-2z"/>
   <path class="fil1" d="M40 37c-1,0 -3,3 -3,3 -1,1 0,3 2,2 0,0 2,-2 2,-2 1,-1 0,-3 -1,-3z"/>
   <path class="fil2" d="M105 32l-19 0c-1,0 -1,0 -2,0 0,0 0,0 0,0 -1,1 -1,1 -1,2 0,1 0,1 1,1 0,1 0,1 1,1 0,0 0,0 1,0l12 0c1,0 3,0 4,0 1,1 2,2 2,2 1,1 2,2 2,3 1,1 1,2 1,3 0,1 0,2 -1,3 0,1 -1,2 -1,2 -1,1 -2,2 -3,2 -1,1 -3,1 -4,1l-22 0 0 -7 20 0c1,0 1,0 2,0 0,0 0,0 0,-1 1,0 1,0 1,-1 0,0 0,-1 -1,-1 0,0 0,-1 0,-1 -1,0 -1,0 -2,0l-11 0c-2,0 -3,0 -4,-1 -1,0 -2,-1 -3,-1 -1,-1 -1,-2 -2,-3 0,-1 0,-2 0,-3 0,-1 0,-2 0,-3 1,-1 1,-2 2,-3 1,-1 2,-1 3,-2 1,0 2,0 4,0l20 0 0 7z"/>
   <polygon id="1" class="fil2" points="140,25 140,32 128,32 128,52 121,52 121,32 108,32 108,25 "/>
   <path id="2" class="fil2" d="M172 25l0 7 -21 0c0,0 -1,0 -1,1l0 3 22 0 0 5 -22 0 0 3c0,1 1,1 1,1l21 0 0 7 -25 0c-3,0 -4,-1 -4,-4l0 -20c0,-2 1,-3 4,-3l25 0z"/>
   <path id="3" class="fil2" d="M196 25c2,0 3,0 5,0 1,1 2,2 3,3 1,1 2,2 2,3 1,1 1,3 1,4 0,1 0,2 -1,4 0,1 -1,2 -1,3 -1,1 -3,2 -4,2 -1,1 -3,1 -5,1l-13 0 0 7 -7 0 0 -26c0,-1 0,-1 1,-1l19 0zm0 14c1,0 1,-1 2,-1 0,0 1,0 1,-1 0,0 1,-1 1,-2 0,-1 -1,-1 -1,-2 0,0 -1,-1 -1,-1 -1,0 -1,0 -2,0l-12 0c-1,0 -1,0 -1,1l0 6 13 0z"/>
   <path id="4" class="fil3" d="M230 25c2,0 4,0 5,0 1,1 3,2 3,3 1,1 2,2 3,3 0,1 1,3 1,4 0,1 -1,2 -1,4 -1,1 -1,2 -2,3 -1,1 -2,2 -3,2 -2,1 -4,1 -6,1l-13 0 0 7 -7 0 0 -26c0,-1 1,-1 2,-1l18 0zm0 14c1,0 2,-1 2,-1 1,0 1,0 2,-1 0,0 0,-1 0,-2 0,-1 0,-1 -1,-2 0,0 0,-1 -1,-1 0,0 -1,0 -2,0l-12 0c0,0 -1,0 -1,1l0 6 13 0z"/>
   <path id="5" class="fil3" d="M275 51c0,0 0,0 0,1 0,0 0,0 0,0l-8 0c0,0 0,0 0,0 0,0 0,-1 0,-1l-2 -3 -16 0 -2 3c0,0 0,1 0,1 0,0 0,0 0,0l-9 0c0,0 1,0 1,0 0,-1 0,-1 0,-1l10 -22c1,-2 2,-3 3,-4 1,-1 3,-1 5,-1 2,0 3,0 5,1 1,1 2,2 3,4l10 22zm-13 -9l-4 -10c0,0 0,-1 0,-1 -1,0 -1,0 -1,0 0,0 -1,0 -1,0 0,0 0,1 0,1l-5 10 11 0z"/>
   <path id="6" class="fil3" d="M268 26c0,-1 0,-1 0,-1 0,0 0,0 0,0l9 0c0,0 0,0 0,0 0,0 0,0 0,1l7 7c1,0 1,0 1,0 0,0 0,0 1,0l6 -7c1,-1 1,-1 1,-1l9 0c0,0 0,0 0,0 0,0 0,0 -1,1l-13 14 0 12 -7 0 0 -13 -13 -13z"/>
   <path class="fil0" d="M33 36c0,1 1,1 2,1l8 0c4,0 8,0 12,0 1,-1 1,-2 0,-3l-6 -6c-4,-4 -9,-9 -13,-13 0,0 -1,-1 -2,0 -1,1 -1,3 -1,4 0,5 0,11 0,17zm3 -2l14 0c-1,-2 -12,-13 -14,-14l0 14z"/>
   <path class="fil0" d="M11 37c4,0 8,0 11,0l8 0c1,0 2,0 2,-1 1,-2 0,-2 -2,-2 -4,0 -10,0 -14,0l13 -14c1,3 0,6 0,9 1,2 2,2 3,1 1,0 1,-3 1,-4 0,-3 0,-6 0,-9 0,-3 -2,-3 -3,-2 0,0 -16,16 -19,19 0,0 -1,0 -1,1 0,1 1,2 1,2z"/>
  </g>
 </g>
</svg>
